External Loads File
version=1
nRows=70
nColumns=13
Range=5.000000e-03-10 seconds
endheader
time 	forceRightX 	forceRightY 	forceRightZ 	pointRightX 	pointRightY 	pointRightZ 	forceLeftX 	forceLeftY 	forceLeftZ 	pointLeftX 	pointLeftY 	pointLeftZ 		
5.005000 -98.724548 -180.427367 -0.000000 0.186458 0.273045 -0.190909 -91.524302 561.001640 -0.000000 0.481032 0.371076 -0.443455
5.010000 -96.959778 -162.075419 -0.000000 0.184533 0.283461 -0.190950 -99.913723 581.800330 -0.000000 0.483562 0.360234 -0.443412
5.015000 -91.077737 -143.306765 -0.000000 0.183218 0.293963 -0.191054 -108.109616 601.751694 -0.000000 0.485598 0.349231 -0.443335
5.020000 -82.133104 -124.982386 -0.000000 0.182442 0.304815 -0.191139 -115.223917 622.042543 -0.000000 0.487005 0.338113 -0.443559
5.025000 -70.983735 -107.712098 -0.000000 0.182239 0.315665 -0.191277 -121.322563 643.502285 -0.000000 0.487914 0.326862 -0.443467
5.030000 -58.589228 -91.736933 -0.000000 0.182639 0.326612 -0.191397 -125.750072 666.845476 -0.000000 0.488106 0.315502 -0.443522
5.035000 -45.599282 -77.271853 -0.000000 0.183664 0.337400 -0.191632 -129.383923 692.267641 -0.000000 0.487532 0.304397 -0.443654
5.040000 -32.856600 -64.277358 -0.000000 0.185339 0.348378 -0.191740 -130.800533 720.255254 -0.000000 0.486342 0.293368 -0.443556
5.045000 -20.813559 -52.878961 -0.000000 0.187643 0.359128 -0.192056 -130.879046 750.806635 -0.000000 0.484615 0.282417 -0.443537
5.050000 -9.959237 -43.137950 -0.000000 0.190612 0.369824 -0.192314 -129.427549 784.064831 -0.000000 0.482179 0.271725 -0.443423
5.055000 -0.737779 -35.133044 -0.000000 0.194241 0.380520 -0.192559 -125.697515 820.123855 -0.000000 0.479123 0.261128 -0.443325
5.060000 6.517727 -28.920495 -0.000000 0.198424 0.390949 -0.192836 -120.323622 858.623846 -0.000000 0.475364 0.250792 -0.443338
5.065000 11.443454 -24.460366 -0.000000 0.203288 0.401302 -0.193127 -112.204490 899.191698 -0.000000 0.470953 0.240713 -0.443235
5.070000 13.809071 -21.576556 -0.000000 0.208739 0.411264 -0.193456 -102.080263 940.976059 -0.000000 0.465941 0.230997 -0.443147
5.075000 13.463765 -20.002778 -0.000000 0.214769 0.420843 -0.193858 -89.436712 983.156217 -0.000000 0.460308 0.221629 -0.443034
5.080000 10.426874 -19.433384 -0.000000 0.221334 0.430145 -0.194251 -73.651811 1024.785188 -0.000000 0.454051 0.212601 -0.443124
5.085000 4.920699 -19.555893 -0.000000 0.228495 0.439042 -0.194719 -55.492502 1064.714611 -0.000000 0.447441 0.204073 -0.442667
5.090000 -2.720321 -20.112252 -0.000000 0.236120 0.447430 -0.195129 -33.787586 1101.836317 -0.000000 0.440195 0.195712 -0.442481
5.095000 -12.003294 -20.897293 -0.000000 0.244218 0.455095 -0.195540 -10.360994 1134.811892 -0.000000 0.432422 0.188156 -0.442405
5.100000 -22.435514 -21.790529 -0.000000 0.252687 0.462274 -0.196047 15.268196 1162.373883 -0.000000 0.424301 0.181138 -0.442365
5.105000 -33.518407 -22.785703 -0.000000 0.261067 0.468936 -0.196939 41.397699 1183.332389 -0.000000 0.415808 0.174708 -0.442265
5.110000 -44.988371 -23.675967 -0.000000 0.270888 0.475108 -0.196525 73.833859 1196.294665 -0.000000 0.406663 0.168641 -0.441667
5.115000 -56.370086 -24.695925 -0.000000 0.280120 0.480758 -0.197178 103.018597 1200.661397 -0.000000 0.397479 0.163262 -0.441710
5.120000 -67.506270 -25.548631 -0.000000 0.289898 0.486311 -0.197548 132.901598 1195.340761 -0.000000 0.388126 0.158517 -0.441633
5.125000 -78.100406 -26.144974 -0.000000 0.299733 0.490790 -0.197867 159.827285 1179.985205 -0.000000 0.378648 0.154529 -0.441655
5.130000 -87.903570 -26.157747 -0.000000 0.309546 0.494601 -0.198214 183.814303 1154.196521 -0.000000 0.368976 0.151108 -0.441778
5.135000 -96.616729 -25.297527 -0.000000 0.319453 0.497870 -0.198375 204.248468 1117.935856 -0.000000 0.359214 0.148364 -0.441831
5.140000 -103.911510 -23.360199 -0.000000 0.329464 0.500347 -0.198609 220.365201 1071.528712 -0.000000 0.349423 0.146209 -0.441976
5.145000 -109.424775 -20.309344 -0.000000 0.339341 0.501977 -0.198685 230.777669 1015.768623 -0.000000 0.339722 0.144810 -0.442061
5.150000 -112.834487 -16.095807 -0.000000 0.349048 0.503094 -0.198668 235.329825 951.493734 -0.000000 0.330149 0.143936 -0.442092
5.155000 -113.904652 -10.599523 -0.000000 0.358783 0.503506 -0.198672 234.873702 879.517603 -0.000000 0.320635 0.143555 -0.442143
5.160000 -112.471157 -3.885358 -0.000000 0.368245 0.503254 -0.198648 228.771624 801.302772 -0.000000 0.311294 0.143834 -0.442195
5.165000 -108.508546 4.198341 -0.000000 0.377561 0.502161 -0.198339 217.922792 718.282464 -0.000000 0.302217 0.144854 -0.442406
5.170000 -102.152186 13.803731 -0.000000 0.386458 0.500556 -0.198176 202.842459 632.412890 -0.000000 0.293222 0.146454 -0.442661
5.175000 -93.726016 25.225946 -0.000000 0.394938 0.498330 -0.197851 184.494621 545.914113 -0.000000 0.284454 0.148846 -0.442961
5.180000 -83.721996 38.866314 -0.000000 0.402785 0.495304 -0.197703 163.924259 461.251762 -0.000000 0.275880 0.151790 -0.443401
5.185000 -72.566154 55.504059 -0.000000 0.410638 0.491640 -0.197073 143.774541 380.369092 -0.000000 0.267307 0.156205 -0.443790
5.190000 -60.919850 75.464579 -0.000000 0.417861 0.487657 -0.196704 123.942456 305.973264 -0.000000 0.258814 0.161101 -0.444165
5.195000 -49.127173 99.417653 -0.000000 0.424485 0.482282 -0.196281 106.282802 239.500416 -0.000000 0.250457 0.166710 -0.444429
5.200000 -37.451768 127.743732 -0.000000 0.430644 0.475938 -0.195529 91.711401 181.831068 -0.000000 0.242220 0.172957 -0.444580
5.205000 -26.161959 160.510334 -0.000000 0.436418 0.469027 -0.194787 80.672894 132.957957 -0.000000 0.234185 0.179708 -0.444672
5.210000 -15.534666 197.424911 -0.000000 0.441662 0.461588 -0.193967 73.244813 91.994561 -0.000000 0.226547 0.187143 -0.444878
5.215000 -5.595330 237.788516 -0.000000 0.446366 0.453321 -0.192817 69.123509 57.437680 -0.000000 0.219163 0.195191 -0.444918
5.220000 3.408765 280.452751 -0.000000 0.450934 0.444629 -0.191701 67.416781 27.813076 -0.000000 0.212437 0.203958 -0.445056
5.225000 11.884032 323.936732 -0.000000 0.455209 0.434553 -0.191050 67.014626 1.823143 -0.000000 0.206112 0.213145 -0.445081
5.230000 18.054609 366.700731 -0.000000 0.459675 0.425268 -0.191917 66.717531 -20.845727 -0.000000 0.200404 0.222421 -0.445122
5.235000 22.589365 407.210216 -0.000000 0.463758 0.415147 -0.192733 65.573385 -40.558423 -0.000000 0.195465 0.232047 -0.444966
5.240000 24.973085 444.228334 -0.000000 0.467405 0.404540 -0.192500 62.896435 -57.111143 -0.000000 0.191299 0.241812 -0.445203
5.245000 25.076344 476.915968 -0.000000 0.470728 0.393633 -0.192342 58.417078 -70.237555 -0.000000 0.187895 0.251618 -0.445177
5.250000 22.385373 504.924082 -0.000000 0.473874 0.383021 -0.193063 52.479760 -79.664352 -0.000000 0.185143 0.261445 -0.445106
5.255000 17.447026 528.296679 -0.000000 0.476636 0.372494 -0.193643 45.759762 -85.469427 -0.000000 0.183094 0.271446 -0.445240
5.260000 11.147049 547.503547 -0.000000 0.478945 0.361684 -0.193813 39.060828 -88.094122 -0.000000 0.181599 0.281521 -0.445167
5.265000 3.956907 563.407954 -0.000000 0.480846 0.350720 -0.194036 33.147407 -88.262525 -0.000000 0.180739 0.291788 -0.445299
5.270000 -3.194379 577.099851 -0.000000 0.482308 0.339534 -0.194252 28.446493 -86.865327 -0.000000 0.180425 0.302347 -0.445234
5.275000 -10.620891 589.701799 -0.000000 0.483228 0.328446 -0.194071 25.227050 -84.653303 -0.000000 0.180674 0.313014 -0.445221
5.280000 -17.646325 602.196438 -0.000000 0.483566 0.317536 -0.194235 23.231592 -82.217546 -0.000000 0.181620 0.323840 -0.445072
5.285000 -23.892199 615.332818 -0.000000 0.483506 0.306960 -0.194569 22.009454 -79.854271 -0.000000 0.183136 0.334795 -0.444969
5.290000 -28.853804 629.591757 -0.000000 0.482649 0.296597 -0.194789 21.091717 -77.629988 -0.000000 0.185234 0.345607 -0.444914
5.295000 -30.760025 645.262776 -0.000000 0.481056 0.286210 -0.194786 19.991141 -75.549997 -0.000000 0.188028 0.356522 -0.444731
5.300000 -29.622009 662.352654 -0.000000 0.478746 0.275894 -0.194738 18.537105 -73.561034 -0.000000 0.191324 0.367412 -0.444435
5.305000 -26.244653 680.693886 -0.000000 0.475778 0.265865 -0.194729 16.640477 -71.606531 -0.000000 0.195323 0.377913 -0.444127
5.310000 -19.791471 700.094448 -0.000000 0.472179 0.255927 -0.194855 14.050744 -69.666842 -0.000000 0.199944 0.388171 -0.444001
5.315000 -10.319157 720.208790 -0.000000 0.467690 0.246269 -0.195162 10.725786 -67.701197 -0.000000 0.205083 0.398207 -0.443788
5.320000 1.730025 740.582193 -0.000000 0.462707 0.236823 -0.195099 6.766931 -65.710905 -0.000000 0.210807 0.407890 -0.443479
5.325000 16.366598 760.675431 -0.000000 0.457123 0.227711 -0.195038 2.253043 -63.766174 -0.000000 0.217105 0.417305 -0.443309
5.330000 32.994754 779.861171 -0.000000 0.450911 0.218979 -0.195061 -2.725785 -61.981014 -0.000000 0.223806 0.426338 -0.443070
5.335000 51.319617 797.449726 -0.000000 0.444237 0.210683 -0.194531 -8.142976 -60.495388 -0.000000 0.231011 0.435000 -0.442808
5.340000 71.248928 812.704555 -0.000000 0.436872 0.202724 -0.195075 -14.004687 -59.419068 -0.000000 0.238564 0.443166 -0.442597
5.345000 92.609944 824.852127 -0.000000 0.429159 0.195204 -0.195081 -20.341010 -58.757097 -0.000000 0.246760 0.450999 -0.442574
5.350000 113.203130 833.351479 -0.000000 0.421136 0.188202 -0.194976 -27.070471 -58.401495 -0.000000 0.254961 0.458328 -0.441718
